HIERARCHY
ROOT Hips
{
 OFFSET 0.000000 0.000000 0.000000
 CHANNELS 6 Xposition Yposition Zposition Yrotation Xrotation Zrotation
 JOINT Chest
 {
  OFFSET 0.000000 9.585900 0.002600
  CHANNELS 3 Yrotation Xrotation Zrotation
  JOINT Chest2
  {
   OFFSET 0.000000 9.601200 -0.005300
   CHANNELS 3 Yrotation Xrotation Zrotation
   JOINT Chest3
   {
    OFFSET 0.000000 9.561800 0.000000
    CHANNELS 3 Yrotation Xrotation Zrotation
    JOINT Chest4
    {
     OFFSET 0.000000 9.552100 0.000000
     CHANNELS 3 Yrotation Xrotation Zrotation
     JOINT Neck
     {
      OFFSET 0.000000 14.453000 0.000000
      CHANNELS 3 Yrotation Xrotation Zrotation
      JOINT Head
      {
       OFFSET 0.000000 8.936500 -0.011300
       CHANNELS 3 Yrotation Xrotation Zrotation
       End Site
       {
        OFFSET 0.000000 17.073600 -0.006000
       }
      }
     }
     JOINT RightCollar
     {
      OFFSET -2.921100 9.558500 0.000000
      CHANNELS 3 Yrotation Xrotation Zrotation
      JOINT RightShoulder
      {
       OFFSET -13.519700 0.000000 0.000000
       CHANNELS 3 Yrotation Xrotation Zrotation
       JOINT RightElbow
       {
        OFFSET 0.000000 -29.696600 0.000000
        CHANNELS 3 Yrotation Xrotation Zrotation
        JOINT RightWrist
        {
         OFFSET 0.000000 -24.004700 0.000000
         CHANNELS 3 Yrotation Xrotation Zrotation
         End Site
         {
          OFFSET 0.000000 -17.728500 0.000000
         }
        }
       }
      }
     }
     JOINT LeftCollar
     {
      OFFSET 2.921100 9.558500 0.000000
      CHANNELS 3 Yrotation Xrotation Zrotation
      JOINT LeftShoulder
      {
       OFFSET 13.519700 0.000000 0.000000
       CHANNELS 3 Yrotation Xrotation Zrotation
       JOINT LeftElbow
       {
        OFFSET 0.000000 -29.696600 0.000000
        CHANNELS 3 Yrotation Xrotation Zrotation
        JOINT LeftWrist
        {
         OFFSET 0.000000 -24.004700 0.000000
         CHANNELS 3 Yrotation Xrotation Zrotation
         End Site
         {
          OFFSET 0.000000 -17.728500 0.000000
         }
        }
       }
      }
     }
    }
   }
  }
 }
 JOINT RightHip
 {
  OFFSET -7.771700 -0.012900 -0.001300
  CHANNELS 3 Yrotation Xrotation Zrotation
  JOINT RightKnee
  {
   OFFSET 0.000000 -40.869800 0.001200
   CHANNELS 3 Yrotation Xrotation Zrotation
   JOINT RightAnkle
   {
    OFFSET 0.000000 -39.717900 0.002100
    CHANNELS 3 Yrotation Xrotation Zrotation
    JOINT RightToe
    {
     OFFSET 0.000000 -4.965400 11.033500
     CHANNELS 3 Yrotation Xrotation Zrotation
     End Site
     {
      OFFSET 0.000000 -1.423100 5.872300
     }
    }
   }
  }
 }
 JOINT LeftHip
 {
  OFFSET 7.771700 -0.012900 -0.001300
  CHANNELS 3 Yrotation Xrotation Zrotation
  JOINT LeftKnee
  {
   OFFSET 0.000000 -40.869800 0.001200
   CHANNELS 3 Yrotation Xrotation Zrotation
   JOINT LeftAnkle
   {
    OFFSET 0.000000 -39.717900 0.002100
    CHANNELS 3 Yrotation Xrotation Zrotation
    JOINT LeftToe
    {
     OFFSET 0.000000 -4.965400 11.033500
     CHANNELS 3 Yrotation Xrotation Zrotation
     End Site
     {
      OFFSET 0.000000 -1.423100 5.872300
     }
    }
   }
  }
 }
}
MOTION
Frames: 7
Frame Time: 0.008333
-10.246281 57.962417 39.430639 163.924104 -51.397455 -0.430810 4.480018 26.164109 3.015444 0.669486 4.524912 0.275668 1.084296 7.169389 0.465045 3.596450 21.634925 1.901056 2.049397 18.260047 -0.200012 3.816061 -1.858482 -1.027277 5.111676 4.860131 1.163235 18.038374 -29.561504 -14.141511 44.011385 -57.022055 -24.244458 7.912548 -0.660333 -22.212135 -7.492796 2.264611 -2.720998 -16.341893 -22.909788 9.373449 -56.136300 -57.268275 33.921479 -28.132788 2.064694 15.282423 15.426224 -22.190011 6.491906 -12.220249 65.698612 -3.366172 4.140902 5.645093 2.859602 -0.009347 0.103061 -0.003106 -7.820845 -22.066873 3.549982 32.112776 67.021087 28.591337 -21.333049 4.656800 -4.803905 -0.255532 -0.568232 -0.119875
-10.248357 57.961851 39.433279 163.918226 -51.404312 -0.417145 4.485825 26.165884 3.010033 0.671801 4.529426 0.276326 1.096461 7.172032 0.467493 3.585448 21.634833 1.901971 2.072785 18.281158 -0.200787 3.847723 -1.823961 -1.031492 5.109381 4.879843 1.167966 18.042365 -29.563018 -14.148427 44.032282 -57.043956 -24.284597 7.915916 -0.657321 -22.205178 -7.487807 2.282713 -2.720222 -16.336897 -22.918937 9.369835 -56.181927 -57.276971 33.967755 -28.131695 2.065264 15.272505 15.443364 -22.184641 6.482973 -12.231019 65.698704 -3.371077 4.139897 5.647438 2.860339 -0.008257 0.102901 -0.001202 -7.811562 -22.059999 3.542534 32.131799 67.010979 28.599338 -21.344198 4.662264 -4.792784 -0.268295 -0.567491 -0.122561
-10.249323 57.963709 39.434100 163.909111 -51.430439 -0.404725 4.495310 26.186924 3.010189 0.681793 4.526381 0.278108 1.091591 7.179503 0.467260 3.589186 21.640093 1.904116 2.073869 18.287661 -0.199535 3.867714 -1.777569 -1.039938 5.102216 4.890983 1.172394 18.046424 -29.561162 -14.150645 44.065880 -57.076412 -24.333806 7.918810 -0.640415 -22.195009 -7.472960 2.315831 -2.719485 -16.344875 -22.943132 9.372051 -56.227591 -57.283836 33.999340 -28.133191 2.068583 15.275079 15.456882 -22.158387 6.490202 -12.222520 65.695498 -3.369013 4.137123 5.647436 2.865767 -0.015408 0.103646 0.003164 -7.800533 -22.028406 3.540122 32.117262 67.004344 28.575256 -21.358838 4.661700 -4.787710 -0.262719 -0.562893 -0.121733
-10.251155 57.963496 39.436139 163.906452 -51.441273 -0.394385 4.495376 26.196432 3.003489 0.687604 4.523223 0.278467 1.089158 7.183730 0.467605 3.602679 21.645088 1.908489 2.068717 18.294439 -0.198731 3.865687 -1.760381 -1.041897 5.086740 4.891562 1.175201 18.053847 -29.547830 -14.149833 44.082396 -57.086951 -24.366345 7.920511 -0.647669 -22.189541 -7.482987 2.321631 -2.715767 -16.327230 -22.946829 9.362956 -56.282132 -57.298149 34.048608 -28.131456 2.070641 15.268869 15.473938 -22.149854 6.491300 -12.244715 65.694455 -3.394372 4.132475 5.646708 2.873934 -0.013607 0.105110 0.005423 -7.794399 -22.016584 3.532674 32.117246 66.998175 28.564930 -21.354088 4.665306 -4.782705 -0.262380 -0.560744 -0.118839
-10.253035 57.963492 39.437661 163.902900 -51.454094 -0.381959 4.499630 26.202281 2.996367 0.689939 4.526265 0.279718 1.085659 7.186708 0.467254 3.613423 21.646616 1.909206 2.065085 18.314290 -0.201674 3.858386 -1.752854 -1.038452 5.084953 4.911122 1.179635 18.055675 -29.549543 -14.155783 44.098093 -57.107797 -24.399929 7.927976 -0.643567 -22.181559 -7.489761 2.332312 -2.709356 -16.301574 -22.947376 9.350326 -56.358028 -57.315607 34.149177 -28.126599 2.070282 15.249182 15.480890 -22.137186 6.490426 -12.248880 65.695016 -3.405446 4.129326 5.644759 2.877984 -0.010856 0.105257 0.003843 -7.786871 -22.001429 3.525751 32.112550 66.992407 28.548094 -21.357795 4.665024 -4.772345 -0.271218 -0.556482 -0.120558
-10.252935 57.963400 39.439469 163.900672 -51.466457 -0.382206 4.508900 26.208122 3.003717 0.694103 4.528741 0.279402 1.096592 7.186213 0.467544 3.604979 21.650373 1.912118 2.052064 18.334994 -0.205674 3.835167 -1.714521 -1.041030 5.093279 4.952222 1.182095 18.058083 -29.574151 -14.171760 44.129013 -57.133030 -24.441249 7.929574 -0.628061 -22.174508 -7.483067 2.351036 -2.704660 -16.280642 -22.952020 9.336871 -56.436716 -57.329266 34.222160 -28.129083 2.073649 15.239377 15.479742 -22.126790 6.503057 -12.251799 65.692207 -3.415689 4.125735 5.646808 2.881678 -0.007948 0.104788 0.002891 -7.787294 -21.983721 3.534618 32.098758 66.990041 28.523280 -21.360226 4.653183 -4.773326 -0.257435 -0.543724 -0.114347
-10.252669 57.963159 39.441065 163.901331 -51.477864 -0.385488 4.521963 26.214903 3.014495 0.695081 4.528538 0.277993 1.098466 7.187944 0.467484 3.609475 21.651840 1.912762 2.029306 18.357178 -0.207931 3.734501 -1.624489 -1.032237 5.087707 4.971594 1.187303 18.066046 -29.580006 -14.180114 44.146120 -57.146087 -24.472637 7.928706 -0.625887 -22.167074 -7.472980 2.368079 -2.704806 -16.287134 -22.956938 9.339543 -56.490449 -57.338651 34.280492 -28.129487 2.074559 15.226065 15.475064 -22.117152 6.515186 -12.256955 65.689783 -3.426974 4.125886 5.649039 2.884077 -0.007358 0.104179 0.002672 -7.788575 -21.970035 3.544629 32.085566 66.991276 28.500881 -21.366763 4.647937 -4.772703 -0.260460 -0.538998 -0.109608
